<?xml version="1.0" encoding="UTF-8" standalone="no"?>
<svg
   xmlns:dc="http://purl.org/dc/elements/1.1/"
   xmlns:cc="http://creativecommons.org/ns#"
   xmlns:rdf="http://www.w3.org/1999/02/22-rdf-syntax-ns#"
   xmlns:svg="http://www.w3.org/2000/svg"
   xmlns="http://www.w3.org/2000/svg"
   height="56"
   width="370"
   xml:space="preserve"
   viewBox="0 0 370 56.000001"
   y="0px"
   x="0px"
   id="Warstwa_1"
   version="1.1"><metadata
     id="metadata632"><rdf:RDF><cc:Work
         rdf:about=""><dc:format>image/svg+xml</dc:format><dc:type
           rdf:resource="http://purl.org/dc/dcmitype/StillImage" /><dc:title></dc:title></cc:Work></rdf:RDF></metadata><defs
     id="defs630" /><style
     id="style341"
     type="text/css">
	.st0{fill:url(#SVGID_1_);}
	.st1{fill:url(#SVGID_2_);}
	.st2{fill:url(#SVGID_3_);}
	.st3{fill:url(#SVGID_4_);}
	.st4{fill:url(#SVGID_5_);}
	.st5{fill:url(#SVGID_6_);}
	.st6{fill:url(#SVGID_7_);}
	.st7{fill:url(#SVGID_8_);}
	.st8{fill:url(#SVGID_9_);}
	.st9{fill:url(#SVGID_10_);}
	.st10{fill:url(#SVGID_11_);}
	.st11{fill:url(#SVGID_12_);}
	.st12{fill:url(#SVGID_13_);}
	.st13{fill:url(#SVGID_14_);}
	.st14{fill:url(#SVGID_15_);}
	.st15{fill:url(#SVGID_16_);}
	.st16{fill:url(#SVGID_17_);}
	.st17{fill:url(#SVGID_18_);}
	.st18{fill:url(#SVGID_19_);}
	.st19{fill:url(#SVGID_20_);}
	.st20{fill:url(#SVGID_21_);}
	.st21{fill:url(#SVGID_22_);}
	.st22{fill:#F6F6F6;}
</style><g
     transform="translate(-42.21517,-42.402387)"
     id="g625"><g
       id="g597"><g
         id="g356"><g
           id="g354"><linearGradient
             gradientTransform="matrix(1,0,0,-1,0,142.6614)"
             y2="71.851402"
             x2="141.59"
             y1="71.851402"
             x1="43.810001"
             gradientUnits="userSpaceOnUse"
             id="SVGID_1_"><stop
               id="stop343"
               style="stop-color:#B2B2B2"
               offset="0" /><stop
               id="stop345"
               style="stop-color:#FFFFFF"
               offset="0.3" /><stop
               id="stop347"
               style="stop-color:#FFFFFF"
               offset="0.7" /><stop
               id="stop349"
               style="stop-color:#B2B2B2"
               offset="1" /></linearGradient><path
             style="fill:url(#SVGID_1_)"
             id="path352"
             d="m 108.9,46.6 6.1,6.1 h 13.6 L 117.4,69.7 92.7,44.9 68,69.6 56.8,52.6 h 13.6 l 6.1,-6.1 H 43.8 l 33,50.1 15.9,-15.8 15.9,15.8 33,-50.1 H 108.9 Z M 107.4,84.8 92.7,70.2 78,84.8 72.2,76 92.7,55.5 113.2,76 Z"
             class="st0" /></g></g><linearGradient
         gradientTransform="rotate(180,-659.35585,71.3307)"
         y2="82.746498"
         x2="-1371.4453"
         y1="92.682404"
         x1="-1377.3168"
         gradientUnits="userSpaceOnUse"
         id="SVGID_2_"><stop
           id="stop358"
           style="stop-color:#FFFFFF"
           offset="0" /><stop
           id="stop360"
           style="stop-color:#C6C6C6"
           offset="0.18" /><stop
           id="stop362"
           style="stop-color:#000000"
           offset="0.52" /><stop
           id="stop364"
           style="stop-color:#706F6F"
           offset="0.9" /></linearGradient><polygon
         style="fill:url(#SVGID_2_)"
         id="polygon367"
         points="50.7,49.8 61.8,67 58.3,68 45.1,47.3 63.3,47.3 75.3,47.3 71.4,49.3 69.3,49.8 "
         class="st1" /><linearGradient
         gradientTransform="matrix(1,0,0,-1,14381.82,142.6614)"
         y2="82.747498"
         x2="-14249.16"
         y1="92.683502"
         x1="-14255.031"
         gradientUnits="userSpaceOnUse"
         id="SVGID_3_"><stop
           id="stop369"
           style="stop-color:#FFFFFF"
           offset="0" /><stop
           id="stop371"
           style="stop-color:#C6C6C6"
           offset="0.18" /><stop
           id="stop373"
           style="stop-color:#000000"
           offset="0.52" /><stop
           id="stop375"
           style="stop-color:#706F6F"
           offset="0.9" /></linearGradient><polygon
         style="fill:url(#SVGID_3_)"
         id="polygon378"
         points="134.7,49.8 123.6,67 127.1,68 140.3,47.3 122.1,47.3 110.1,47.3 113.9,49.3 116.1,49.8 "
         class="st2" /><linearGradient
         gradientTransform="rotate(180,-417.99355,71.3307)"
         y2="85.481903"
         x2="-893.76862"
         y1="99.526802"
         x1="-902.94482"
         gradientUnits="userSpaceOnUse"
         id="SVGID_4_"><stop
           id="stop380"
           style="stop-color:#C6C6C6"
           offset="0" /><stop
           id="stop382"
           style="stop-color:#000000"
           offset="0.32" /><stop
           id="stop384"
           style="stop-color:#878787"
           offset="0.58" /><stop
           id="stop386"
           style="stop-color:#9D9D9C"
           offset="0.85" /><stop
           id="stop388"
           style="stop-color:#E3E3E3"
           offset="1" /></linearGradient><path
         style="fill:url(#SVGID_4_)"
         id="path391"
         d="m 69.3,49.8 2.1,-0.5 5.1,-2.8 -6.1,6.1 H 56.7 c -0.8,0 -0.3,0.6 -0.3,0.6 l 5.9,8.9 h -3.5 l -8,-12.4 z"
         class="st3" /><linearGradient
         gradientTransform="matrix(1,0,0,-1,13899.096,142.6614)"
         y2="85.488998"
         x2="-13771.472"
         y1="99.533897"
         x1="-13780.647"
         gradientUnits="userSpaceOnUse"
         id="SVGID_5_"><stop
           id="stop393"
           style="stop-color:#C6C6C6"
           offset="0" /><stop
           id="stop395"
           style="stop-color:#000000"
           offset="0.32" /><stop
           id="stop397"
           style="stop-color:#878787"
           offset="0.58" /><stop
           id="stop399"
           style="stop-color:#9D9D9C"
           offset="0.85" /><stop
           id="stop401"
           style="stop-color:#E3E3E3"
           offset="1" /></linearGradient><path
         style="fill:url(#SVGID_5_)"
         id="path404"
         d="m 116.1,49.8 -2.1,-0.5 -5.1,-2.8 6.1,6.1 h 13.7 c 0.8,0 0.3,0.6 0.3,0.6 l -5.9,8.9 h 3.6 l 8,-12.4 z"
         class="st4" /><linearGradient
         gradientTransform="matrix(1,0,0,-1,0,142.6614)"
         y2="68.616096"
         x2="68.176399"
         y1="80.171303"
         x1="60.544701"
         gradientUnits="userSpaceOnUse"
         id="SVGID_6_"><stop
           id="stop406"
           style="stop-color:#E3E3E3"
           offset="0" /><stop
           id="stop408"
           style="stop-color:#DEDEDE"
           offset="0.2549" /><stop
           id="stop410"
           style="stop-color:#CFCFCF"
           offset="0.6294" /><stop
           id="stop412"
           style="stop-color:#C6C6C6"
           offset="0.8" /></linearGradient><polygon
         style="fill:url(#SVGID_6_)"
         id="polygon415"
         points="58.6,62.1 62.2,62.1 69.7,73.4 67.4,75.7 "
         class="st5" /><linearGradient
         gradientTransform="rotate(180,6531.5542,71.3307)"
         y2="68.617203"
         x2="12945.895"
         y1="80.172401"
         x1="12938.263"
         gradientUnits="userSpaceOnUse"
         id="SVGID_7_"><stop
           id="stop417"
           style="stop-color:#E3E3E3"
           offset="0" /><stop
           id="stop419"
           style="stop-color:#DEDEDE"
           offset="0.2549" /><stop
           id="stop421"
           style="stop-color:#CFCFCF"
           offset="0.6294" /><stop
           id="stop423"
           style="stop-color:#C6C6C6"
           offset="0.8" /></linearGradient><polygon
         style="fill:url(#SVGID_7_)"
         id="polygon426"
         points="126.8,62.1 123.2,62.1 115.7,73.4 118,75.7 "
         class="st6" /><linearGradient
         gradientTransform="matrix(1,0,0,-1,0,142.6614)"
         y2="81.881401"
         x2="117.4435"
         y1="81.881401"
         x1="67.875198"
         gradientUnits="userSpaceOnUse"
         id="SVGID_8_"><stop
           id="stop428"
           style="stop-color:#C6C6C6"
           offset="0" /><stop
           id="stop430"
           style="stop-color:#9D9D9C"
           offset="0.15" /><stop
           id="stop432"
           style="stop-color:#FFFFFF"
           offset="0.4" /><stop
           id="stop434"
           style="stop-color:#FFFFFF"
           offset="0.6" /><stop
           id="stop436"
           style="stop-color:#9D9D9C"
           offset="0.85" /><stop
           id="stop438"
           style="stop-color:#A0A09F"
           offset="0.8563" /><stop
           id="stop440"
           style="stop-color:#B6B6B5"
           offset="0.9116" /><stop
           id="stop442"
           style="stop-color:#C2C2C2"
           offset="0.9612" /><stop
           id="stop444"
           style="stop-color:#C6C6C6"
           offset="1" /></linearGradient><polygon
         style="fill:url(#SVGID_8_)"
         id="polygon447"
         points="118,75.6 117.5,70.7 92.7,45.9 67.9,70.7 67.4,75.6 92.7,51 "
         class="st7" /><linearGradient
         gradientTransform="matrix(1,0,0,-1,0,142.6614)"
         y2="83.451401"
         x2="109.49"
         y1="83.451401"
         x1="75.910004"
         gradientUnits="userSpaceOnUse"
         id="SVGID_9_"><stop
           id="stop449"
           style="stop-color:#666666"
           offset="0" /><stop
           id="stop451"
           style="stop-color:#000000"
           offset="0.5" /><stop
           id="stop453"
           style="stop-color:#666666"
           offset="1" /></linearGradient><polygon
         style="fill:url(#SVGID_9_)"
         id="polygon456"
         points="109.5,67.4 92.7,51 75.9,67.4 92.7,55.6 "
         class="st8" /><linearGradient
         gradientTransform="matrix(1,0,0,-1,0,142.6614)"
         y2="76.801399"
         x2="113.5169"
         y1="76.801399"
         x1="71.777496"
         gradientUnits="userSpaceOnUse"
         id="SVGID_10_"><stop
           id="stop458"
           style="stop-color:#C6C6C6"
           offset="0" /><stop
           id="stop460"
           style="stop-color:#706F6F"
           offset="0.1" /><stop
           id="stop462"
           style="stop-color:#878787"
           offset="0.35" /><stop
           id="stop464"
           style="stop-color:#878787"
           offset="0.65" /><stop
           id="stop466"
           style="stop-color:#706F6F"
           offset="0.9" /><stop
           id="stop468"
           style="stop-color:#C6C6C6"
           offset="1" /></linearGradient><path
         style="fill:url(#SVGID_10_)"
         id="path471"
         d="M 108.4,66.4 C 105,63 93.6,55.1 92.7,55.1 91.8,55.1 80.4,63 76.9,66.4 l -9.5,9.3 4.3,0.9 21,-21 21,21 4.3,-0.9 z"
         class="st9" /><linearGradient
         gradientTransform="matrix(1,0,0,-1,0,142.6614)"
         y2="62.9464"
         x2="105.9239"
         y1="62.9464"
         x1="79.43"
         gradientUnits="userSpaceOnUse"
         id="SVGID_11_"><stop
           id="stop473"
           style="stop-color:#A8A8A7"
           offset="0.15" /><stop
           id="stop475"
           style="stop-color:#FFFFFF"
           offset="0.4" /><stop
           id="stop477"
           style="stop-color:#FFFFFF"
           offset="0.6" /><stop
           id="stop479"
           style="stop-color:#A8A8A7"
           offset="0.85" /></linearGradient><polygon
         style="fill:url(#SVGID_11_)"
         id="polygon482"
         points="107.5,85.9 92.7,71.1 77.9,85.9 79.5,88.3 92.7,75.9 105.9,88.3 "
         class="st10" /><linearGradient
         gradientTransform="matrix(1,0,0,-1,0,142.6614)"
         y2="60.881401"
         x2="127.15"
         y1="60.881401"
         x1="58.25"
         gradientUnits="userSpaceOnUse"
         id="SVGID_12_"><stop
           id="stop484"
           style="stop-color:#706F6F"
           offset="0.15" /><stop
           id="stop486"
           style="stop-color:#000000"
           offset="0.23" /><stop
           id="stop488"
           style="stop-color:#9D9D9C"
           offset="0.29" /><stop
           id="stop490"
           style="stop-color:#706F6F"
           offset="0.3444" /><stop
           id="stop492"
           style="stop-color:#000000"
           offset="0.5" /><stop
           id="stop494"
           style="stop-color:#706F6F"
           offset="0.65" /><stop
           id="stop496"
           style="stop-color:#9D9D9C"
           offset="0.71" /><stop
           id="stop498"
           style="stop-color:#000000"
           offset="0.77" /><stop
           id="stop500"
           style="stop-color:#706F6F"
           offset="0.85" /></linearGradient><polygon
         style="fill:url(#SVGID_12_)"
         id="polygon503"
         points="108.4,90.6 92.7,75.9 77,90.6 61.7,66.9 58.3,67.8 76.8,96.7 92.7,80.8 108.6,96.7 127.2,67.8 123.7,66.9 "
         class="st11" /><linearGradient
         gradientTransform="matrix(1,0,0,-1,0,142.6614)"
         y2="59.098801"
         x2="80.941101"
         y1="61.154999"
         x1="70.749702"
         gradientUnits="userSpaceOnUse"
         id="SVGID_13_"><stop
           id="stop505"
           style="stop-color:#C6C6C6"
           offset="0" /><stop
           id="stop507"
           style="stop-color:#FFFFFF"
           offset="0.75" /><stop
           id="stop509"
           style="stop-color:#A8A8A7"
           offset="1" /></linearGradient><polygon
         style="fill:url(#SVGID_13_)"
         id="polygon512"
         points="77.9,85.9 69.7,73.4 67.4,75.7 77,90.6 83.6,84.4 81.5,82.3 "
         class="st12" /><linearGradient
         gradientTransform="rotate(180,6531.5542,71.3307)"
         y2="59.0975"
         x2="12958.656"
         y1="61.1535"
         x1="12948.466"
         gradientUnits="userSpaceOnUse"
         id="SVGID_14_"><stop
           id="stop514"
           style="stop-color:#C6C6C6"
           offset="0" /><stop
           id="stop516"
           style="stop-color:#FFFFFF"
           offset="0.75" /><stop
           id="stop518"
           style="stop-color:#A8A8A7"
           offset="1" /></linearGradient><polygon
         style="fill:url(#SVGID_14_)"
         id="polygon521"
         points="107.5,85.9 115.7,73.4 118,75.7 108.4,90.6 101.8,84.4 103.9,82.3 "
         class="st13" /><linearGradient
         gradientTransform="matrix(1,0,0,-1,0,142.6614)"
         y2="56.8064"
         x2="103.27"
         y1="56.8064"
         x1="82.129997"
         gradientUnits="userSpaceOnUse"
         id="SVGID_15_"><stop
           id="stop523"
           style="stop-color:#706F6F"
           offset="0" /><stop
           id="stop525"
           style="stop-color:#878787"
           offset="0.45" /><stop
           id="stop527"
           style="stop-color:#878787"
           offset="0.55" /><stop
           id="stop529"
           style="stop-color:#706F6F"
           offset="1" /></linearGradient><path
         style="fill:url(#SVGID_15_)"
         id="path532"
         d="m 92.7,80.3 c -1.9,0.6 -9.6,5.2 -10.6,6.1 v 5 l 10.6,-10.5 10.6,10.6 v -5 c -1,-1 -8.7,-5.6 -10.6,-6.2 z"
         class="st14" /><linearGradient
         gradientTransform="rotate(180,3266.405,71.3307)"
         y2="50.346401"
         x2="6424.2046"
         y1="50.346401"
         x1="6419.7041"
         gradientUnits="userSpaceOnUse"
         id="SVGID_16_"><stop
           id="stop534"
           style="stop-color:#3C3C3B"
           offset="5.000000e-02" /><stop
           id="stop536"
           style="stop-color:#575756"
           offset="0.35" /><stop
           id="stop538"
           style="stop-color:#9D9D9C"
           offset="1" /></linearGradient><path
         style="fill:url(#SVGID_16_)"
         id="path541"
         d="m 113.2,89.5 -4.6,7.1 c 0,-1 2.5,-5.3 4.6,-8.7 z"
         class="st15" /><linearGradient
         gradientTransform="matrix(1,0,0,-1,1355.9453,142.6614)"
         y2="50.346401"
         x2="-1279.1558"
         y1="50.346401"
         x1="-1283.6577"
         gradientUnits="userSpaceOnUse"
         id="SVGID_17_"><stop
           id="stop543"
           style="stop-color:#3C3C3B"
           offset="5.000000e-02" /><stop
           id="stop545"
           style="stop-color:#575756"
           offset="0.35" /><stop
           id="stop547"
           style="stop-color:#9D9D9C"
           offset="1" /></linearGradient><path
         style="fill:url(#SVGID_17_)"
         id="path550"
         d="m 72.2,89.5 4.6,7.1 c 0,-1 -2.5,-5.3 -4.6,-8.7 z"
         class="st16" /><path
         id="path552"
         d="m 72.2,76.1 5.8,8.8 14.7,-14.7 14.7,14.7 5.8,-8.8 -20.5,-20.5 z m 35.1,7.7 -14.6,-14.6 -14.6,14.6 -5,-7.6 19.6,-19.6 19.6,19.6 z m -0.1,-37.9 7.5,7.5 h 12.6 L 117.3,68.6 92.7,44 68.1,68.6 58.1,53.4 h 12.6 l 7.5,-7.5 H 42.5 l 34.2,51.9 16,-16 16,16 34.2,-51.9 z M 108.6,96.7 92.7,80.8 76.8,96.7 43.8,46.6 h 32.7 l -6.1,6.1 H 56.8 L 68,69.7 92.7,45 l 24.7,24.7 11.2,-17 H 115 l -6.1,-6.1 h 32.7 z" /><linearGradient
         gradientTransform="matrix(1,0,0,-1,0,142.6614)"
         y2="88.030502"
         x2="59.562698"
         y1="95.094398"
         x1="46.535301"
         gradientUnits="userSpaceOnUse"
         id="SVGID_18_"><stop
           id="stop554"
           style="stop-color:#000000"
           offset="0.2" /><stop
           id="stop556"
           style="stop-color:#FFFFFF"
           offset="1" /></linearGradient><path
         style="fill:url(#SVGID_18_)"
         id="path559"
         d="m 53.1,50 h 14.5 c 2.4,0 3.2,-0.1 5.2,-1.2 0,0 2,-1.2 3.7,-2.2 l -4.1,2.1 c -1.3,0.6 -2.2,0.8 -3.7,0.8 -2.6,0 -16.1,0 -16.1,0 -2.3,0 -2.9,0 -1,3 L 67.1,76 67.5,75.7 c 0,0 -14.8,-22.9 -15.2,-23.6 -0.6,-1.1 -0.7,-2 0.8,-2.1 z"
         class="st17" /><linearGradient
         gradientTransform="rotate(180,7577.6411,71.3307)"
         y2="88.0317"
         x2="15029.453"
         y1="95.095703"
         x1="15016.426"
         gradientUnits="userSpaceOnUse"
         id="SVGID_19_"><stop
           id="stop561"
           style="stop-color:#000000"
           offset="0.2" /><stop
           id="stop563"
           style="stop-color:#FFFFFF"
           offset="1" /></linearGradient><path
         style="fill:url(#SVGID_19_)"
         id="path566"
         d="m 132.3,50 h -14.5 c -2.4,0 -3.2,-0.1 -5.2,-1.2 0,0 -2,-1.2 -3.7,-2.2 l 4.1,2.1 c 1.3,0.6 2.2,0.8 3.7,0.8 2.6,0 16.1,0 16.1,0 2.4,0 2.9,0 1,3 L 118.3,76 117.9,75.7 c 0,0 14.8,-22.9 15.2,-23.6 0.6,-1.1 0.7,-2 -0.8,-2.1 z"
         class="st18" /><linearGradient
         gradientTransform="matrix(1,0,0,-1,0,142.6614)"
         y2="49.375999"
         x2="92.695"
         y1="60.6791"
         x1="92.695"
         gradientUnits="userSpaceOnUse"
         id="SVGID_20_"><stop
           id="stop568"
           style="stop-color:#FFFFFF"
           offset="0.1937" /><stop
           id="stop570"
           style="stop-color:#9D9D9C"
           offset="0.95" /></linearGradient><path
         style="fill:url(#SVGID_20_)"
         id="path573"
         d="m 81.9,85.8 c -4.4,4.2 -4.3,4.7 -7.2,0.6 L 67.5,75.6 67.2,76 76,89.7 c 1,1.6 1.2,1.6 2.5,0.3 l 3.8,-3.8 4.5,-4.4 -0.5,-0.5 z m 36,-10.2 -7.2,10.8 c -2.8,4.1 -2.8,3.5 -7.2,-0.6 l -4.4,-4.5 -0.5,0.5 4.5,4.4 3.8,3.8 c 1.4,1.3 1.5,1.3 2.5,-0.3 l 8.8,-13.8 z"
         class="st19" /><linearGradient
         gradientTransform="matrix(1,0,0,-1,0,142.6614)"
         y2="67.1521"
         x2="92.699997"
         y1="60.891399"
         x1="92.699997"
         gradientUnits="userSpaceOnUse"
         id="SVGID_21_"><stop
           id="stop575"
           style="stop-color:#FFFFFF"
           offset="0" /><stop
           id="stop577"
           style="stop-color:#EDEDED"
           offset="0.6722" /><stop
           id="stop579"
           style="stop-color:#E7E7E7"
           offset="0.7581" /><stop
           id="stop581"
           style="stop-color:#D9D9D9"
           offset="0.8842" /><stop
           id="stop583"
           style="stop-color:#C6C6C6"
           offset="1" /></linearGradient><path
         style="fill:url(#SVGID_21_)"
         id="path586"
         d="m 94.4,76.5 c 0,0 -1,-1.1 -1.7,-1.1 -0.7,0 -1.7,1.1 -1.7,1.1 l -4.7,4.8 0.5,0.5 2.6,-2.6 c 2.2,-2.1 2.4,-2.4 3.3,-2.4 0.9,0 1.1,0.3 3.3,2.4 l 2.6,2.6 0.5,-0.5 z"
         class="st20" /><linearGradient
         gradientTransform="matrix(1,0,0,-1,0,142.6614)"
         y2="91.968002"
         x2="92.695"
         y1="68.923203"
         x1="92.695"
         gradientUnits="userSpaceOnUse"
         id="SVGID_22_"><stop
           id="stop588"
           style="stop-color:#C6C6C6"
           offset="0" /><stop
           id="stop590"
           style="stop-color:#EDEDED"
           offset="0.5" /><stop
           id="stop592"
           style="stop-color:#C6C6C6"
           offset="1" /></linearGradient><path
         style="fill:url(#SVGID_22_)"
         id="path595"
         d="m 94.4,51.6 c 0,0 -1,-1 -1.7,-1 -0.7,0 -1.7,1 -1.7,1 L 69.4,73.7 89.5,54.2 c 2.2,-2.1 2.5,-2.4 3.3,-2.4 0.8,0 1.1,0.3 3.3,2.4 L 116,73.7 Z"
         class="st21" /></g><g
       id="g623"><g
         id="g611"><path
           style="fill:#f6f6f6"
           id="path599"
           d="m 183.1,62.8 h -10.5 v -7 h 28.6 v 7 h -10.5 v 27.5 h -7.6 z"
           class="st22" /><path
           style="fill:#f6f6f6"
           id="path601"
           d="m 205.1,55.8 h 15.8 c 4.4,0 7.8,1.2 10.1,3.5 1.9,1.9 3,4.6 3,7.9 v 0.1 c 0,5.6 -3,9.1 -7.4,10.7 l 8.4,12.3 h -8.9 l -7.4,-11 h -6 v 11 h -7.6 z m 15.3,16.8 c 3.7,0 5.8,-2 5.8,-4.9 v -0.1 c 0,-3.3 -2.3,-4.9 -6,-4.9 h -7.5 v 9.9 z"
           class="st22" /><path
           style="fill:#f6f6f6"
           id="path603"
           d="m 250.6,55.6 h 7 l 14.8,34.7 h -7.9 l -3.1,-7.7 h -14.6 l -3.1,7.7 H 236 Z m 8,20.3 -4.6,-11.2 -4.6,11.2 z"
           class="st22" /><path
           style="fill:#f6f6f6"
           id="path605"
           d="m 275.8,55.8 h 13.5 c 10.9,0 18.3,7.4 18.3,17.2 v 0.1 c 0,9.7 -7.5,17.3 -18.3,17.3 h -13.5 z m 7.6,6.8 v 20.8 h 5.9 c 6.2,0 10.4,-4.2 10.4,-10.3 V 73 c 0,-6.1 -4.2,-10.4 -10.4,-10.4 -0.1,0 -5.9,0 -5.9,0 z"
           class="st22" /><path
           style="fill:#f6f6f6"
           id="path607"
           d="m 312.4,55.8 h 26 v 6.8 h -18.5 v 7 h 16.3 v 6.8 h -16.3 v 7.3 h 18.7 v 6.8 h -26.3 z"
           class="st22" /><path
           style="fill:#f6f6f6"
           id="path609"
           d="m 343.5,55.8 h 15.8 c 4.4,0 7.8,1.2 10.1,3.5 1.9,1.9 3,4.6 3,7.9 v 0.1 c 0,5.6 -3,9.1 -7.4,10.7 l 8.4,12.3 h -8.9 l -7.4,-11 h -6 v 11 h -7.6 z m 15.2,16.8 c 3.7,0 5.8,-2 5.8,-4.9 v -0.1 c 0,-3.3 -2.3,-4.9 -6,-4.9 H 351 v 9.9 z"
           class="st22" /></g><g
         id="g621"><g
           id="g619"><path
             style="fill:#f6f6f6"
             id="path613"
             d="m 385.3,67.5 c 2.9,-2.3 4.3,-3.6 4.3,-6.4 0,-3.1 -2.3,-5.3 -5.8,-5.3 -3.1,0 -4.6,1.3 -6.2,3.4 l -0.2,0.3 3,2.5 0.3,-0.3 c 1.2,-1.5 1.9,-2 2.9,-2 1.1,0 1.7,0.6 1.7,1.6 0,1.1 -0.7,1.9 -2.6,3.5 l -5.4,4.4 v 3.3 h 12.4 v -3.8 h -6.1 z"
             class="st22" /><rect
             style="fill:#f6f6f6"
             id="rect615"
             height="3.9000001"
             width="3.8"
             class="st22"
             y="68.699997"
             x="391.70001" /><path
             style="fill:#f6f6f6"
             id="path617"
             d="m 403.6,59.7 c 1.8,0 3,1.9 3,4.6 v 0 c 0,2.7 -1.2,4.6 -3,4.6 -1.8,0 -3,-1.9 -3,-4.6 0,-2.7 1.3,-4.6 3,-4.6 m 0.1,-3.9 c -4.3,0 -7.4,3.6 -7.4,8.5 v 0 c 0,4.9 3.1,8.5 7.4,8.5 4.3,0 7.4,-3.6 7.4,-8.6 -0.1,-4.9 -3.2,-8.4 -7.4,-8.4"
             class="st22" /></g></g></g></g></svg>